<svg width="32" height="32" viewBox="0 0 32 32" fill="none" xmlns="http://www.w3.org/2000/svg">
<path d="M8 2.66675L4 8.00008V26.6668C4 27.374 4.28095 28.0523 4.78105 28.5524C5.28115 29.0525 5.95942 29.3335 6.66667 29.3335H25.3333C26.0406 29.3335 26.7189 29.0525 27.219 28.5524C27.719 28.0523 28 27.374 28 26.6668V8.00008L24 2.66675H8Z" stroke="black" stroke-width="2" stroke-linecap="round" stroke-linejoin="round"/>
<path d="M4 8H28" stroke="black" stroke-width="2" stroke-linecap="round" stroke-linejoin="round"/>
<path d="M21.3334 13.3333C21.3334 14.7478 20.7715 16.1044 19.7713 17.1046C18.7711 18.1048 17.4146 18.6667 16.0001 18.6667C14.5856 18.6667 13.229 18.1048 12.2288 17.1046C11.2287 16.1044 10.6667 14.7478 10.6667 13.3333" stroke="black" stroke-width="2" stroke-linecap="round" stroke-linejoin="round"/>
</svg>
